<?xml version="1.0" encoding="utf-8"?>
<!-- Generator: Adobe Illustrator 16.0.0, SVG Export Plug-In . SVG Version: 6.00 Build 0)  -->
<!DOCTYPE svg PUBLIC "-//W3C//DTD SVG 1.1//EN" "http://www.w3.org/Graphics/SVG/1.1/DTD/svg11.dtd">
<svg version="1.1" id="Layer_1" xmlns="http://www.w3.org/2000/svg" xmlns:xlink="http://www.w3.org/1999/xlink" x="0px" y="0px"
	 width="1070.281px" height="499.699px" viewBox="0 0 1070.281 499.699" enable-background="new 0 0 1070.281 499.699"
	 xml:space="preserve">
<g>
	<path fill="#20C178" d="M925.811,97.973c24.099,6.087,45.641,18.621,62.675,35.65c24.576,24.577,39.78,58.54,39.78,96.043
		c0,37.502-15.204,71.461-39.78,96.037c-24.577,24.577-58.54,39.777-96.043,39.777c-37.498,0-71.461-15.2-96.038-39.777
		c-24.576-24.575-39.78-58.534-39.78-96.037c0-37.503,15.204-71.466,39.78-96.043c17.033-17.029,38.571-29.558,62.675-35.65v39.625
		c-13.616,4.935-25.823,12.799-35.857,22.842c-17.719,17.714-28.679,42.187-28.679,69.227c0,27.034,10.965,51.511,28.679,69.225
		c17.709,17.719,42.187,28.665,69.221,28.665s51.517-10.946,69.231-28.665c17.713-17.714,28.674-42.196,28.674-69.225
		c0-27.04-10.961-51.512-28.674-69.227c-10.039-10.043-22.248-17.908-35.863-22.842V97.973L925.811,97.973z"/>
	<path fill="#20C178" d="M257.316,208.776h34.861c0.307,6.824,2.888,11.942,7.657,15.393c5.161,3.412,11.981,5.123,20.511,5.123
		c6.168,0,11.461-1.224,15.881-3.587c4.112-2.41,6.167-5.643,6.167-9.755c0-6.168-7.175-10.762-21.524-13.867
		c-6.163-1.007-10.757-2.01-13.862-3.063c-18.111-4.419-30.225-9.755-36.393-15.875c-6.824-6.167-10.237-14.349-10.237-24.628
		c0-12.988,4.944-23.749,14.874-32.276c10.233-7.874,23.57-11.815,39.98-11.815c17.757,0,31.925,3.941,42.556,11.815
		c9.882,8.527,15.176,19.638,15.88,33.33H351.62c-6.471,0-11.461-2.931-14.87-8.748l0,0c-1.356-1.357-2.712-2.713-4.112-4.117
		c-4.069-3.059-9.712-4.59-16.882-4.59c-6.868,0-11.986,1.006-15.398,3.063c-3.063,2.057-4.594,5.162-4.594,9.231
		c0,5.468,8.881,10.1,26.637,13.862c2.056,0.658,3.853,1.182,5.384,1.532c1.531,0.349,2.973,0.524,4.371,0.524
		c17.407,4.418,29.525,9.58,36.388,15.355c6.48,6.167,9.712,14.391,9.712,24.625c0,15.043-5.463,26.679-16.4,34.855
		c-10.237,7.529-25.63,11.291-46.1,11.291c-19.51,0-34.029-3.941-43.567-11.811c-9.93-7.827-14.874-19.292-14.874-34.335V208.776
		L257.316,208.776z M451.306,253.87c-11.287,0.698-23.489,0.528-36.652-0.483c-13.168-1.044-19.728-9.4-19.728-25.148V77.555h18.456
		c4.42,0,8.356,1.707,11.77,5.119c3.412,3.413,5.118,7.525,5.118,12.289v23.097h21.037v7.17c0,5.118-1.707,9.32-5.119,12.558
		c-3.407,3.238-7.52,4.853-12.331,4.853h-3.587v75.891c0,5.775,3.412,8.706,10.275,8.706h10.762V253.87L451.306,253.87z
		 M540.23,185.196c-4.811,2.364-11.461,4.599-19.987,6.654c-7.874,1.707-11.811,2.581-11.811,2.581
		c-6.125,1.707-10.587,3.89-13.343,6.646c-2.358,3.761-3.583,7.524-3.583,11.286c0,5.119,1.574,9.226,4.632,12.288
		c3.067,2.713,7.529,4.117,13.343,4.117c9.537,0,17.057-2.756,22.525-8.229c5.469-5.464,8.224-12.988,8.224-22.521V185.196
		L540.23,185.196z M548.412,248.23c-7.175,3.763-14.789,6.079-22.791,6.953c-8.048,0.831-15.133,1.271-21.3,1.271
		c-12.289,0-23.051-3.327-32.281-10.019c-9.225-6.65-13.819-17.667-13.819-33.065c0-14.35,4.154-24.582,12.552-30.75
		c8.356-6.168,19.029-10.237,32.017-12.293c1.706,0,3.762-0.26,6.168-0.789c2.405-0.521,5.119-0.917,8.176-1.267
		c15.048-2.056,22.572-6.517,22.572-13.342c0-5.114-2.666-8.441-7.958-10.015c-5.293-1.527-10.148-2.274-14.614-2.274
		c-4.764,0-9.051,0.657-12.813,2.052c-3.763,1.361-6.476,3.899-8.182,7.656h-34.331c1.356-10.587,6.125-19.288,14.349-26.108
		c9.226-7.874,22.394-11.815,39.451-11.815c19.155,0,33.504,3.243,43.084,9.755c9.883,6.825,14.827,16.405,14.827,28.698v46.667
		c0,13.65-2.448,24.364-7.436,32.017C561.141,239.261,555.231,244.818,548.412,248.23L548.412,248.23z M585.594,253.87v-66.136
		c0-13.294,1.972-24.491,5.903-33.542c3.941-9.055,9.32-16.319,16.14-21.788c6.475-5.114,14.085-8.876,22.791-11.281
		c8.748-2.406,17.714-3.587,26.944-3.587c0.652,0,1.526,0,2.538,0c1.044,0,1.876,0,2.575,0v36.393H650.68
		c-9.888,0-17.237,2.405-22.044,7.174c-4.769,4.764-7.175,12.288-7.175,22.563v70.205H585.594L585.594,253.87z M733.479,253.87
		c-11.282,0.698-23.49,0.528-36.653-0.483c-13.167-1.044-19.727-9.4-19.727-25.148V77.555h18.456c4.418,0,8.355,1.707,11.768,5.119
		c3.413,3.413,5.119,7.525,5.119,12.289v23.097h21.037v7.17c0,5.118-1.707,9.32-5.119,12.558c-3.407,3.238-7.524,4.853-12.331,4.853
		h-3.587v75.891c0,5.775,3.412,8.706,10.274,8.706h10.763V253.87L733.479,253.87z"/>
	<path fill="#20C178" d="M918.834,229.501c0,7.43-2.515,13.715-7.543,18.853c-5.024,5.133-11.253,7.699-18.684,7.699
		c-7.43,0-13.716-2.566-18.849-7.699c-5.137-5.137-7.703-11.423-7.703-18.853c0-7.43,2.566-13.655,7.703-18.684
		c5.133-5.028,11.419-7.538,18.849-7.538c7.213,0,13.385,2.566,18.523,7.704C916.264,216.116,918.834,222.292,918.834,229.501
		L918.834,229.501z"/>
	<polygon fill="#20C178" points="913.914,189.744 869.662,189.744 869.662,19.616 913.914,19.616 913.914,189.744 	"/>
	<path fill="#20C178" d="M139.911,380.614h25.631c-3.757,14.339-10.937,25.285-21.519,32.809
		c-10.591,7.865-23.93,11.798-39.98,11.798c-19.51,0-34.686-6.333-45.622-18.98c-10.937-12.289-16.406-29.871-16.406-52.793
		c0-21.863,5.299-38.973,15.881-51.266c10.937-12.639,26.16-18.977,45.622-18.977c20.512,0,36.393,6.163,47.679,18.452
		c10.932,12.642,16.401,30.267,16.401,52.801c0,1.399,0,2.572,0,3.583c0,1.05,0,1.711,0,2.052c0,1.71-0.175,2.93-0.525,3.592H78.407
		c0.35,10.624,2.893,18.461,7.699,23.612c4.42,5.474,11.069,8.186,19.988,8.186c5.78,0,10.762-1.172,14.831-3.592
		c1.054-0.34,1.971-0.907,2.845-1.796c0.833-0.87,1.792-1.777,2.798-2.798c0.35-1.04,1.617-2.4,3.848-4.103
		C132.646,381.483,135.799,380.614,139.911,380.614L139.911,380.614z M78.407,340.639h52.273c-0.7-9.235-3.063-16.06-7.169-20.531
		c-4.466-4.759-10.767-7.164-18.99-7.164c-7.477,0-13.645,2.405-18.414,7.164C81.3,324.93,78.757,331.753,78.407,340.639
		L78.407,340.639z M298.596,422.649h-17.937c-5.161,0-9.315-1.626-12.595-4.858c-3.243-3.281-4.854-7.439-4.854-12.554l0,0v-69.722
		c0-8.224-2.453-14.179-7.435-17.94c-4.943-3.758-10.501-5.639-16.669-5.639c-6.121,0-11.589,1.881-16.401,5.639
		c-4.769,3.762-7.174,9.717-7.174,17.94v87.134h-35.868v-79.969c0-23.263,6.083-38.789,18.201-46.663
		c12.114-7.873,25.541-12.117,40.239-12.813c15.043,0,28.869,3.933,41.511,11.802c12.639,7.831,18.981,23.759,18.981,47.674V422.649
		L298.596,422.649z M398.277,414.464v-8.753c-6.168,9.584-14.481,15.577-24.889,17.979c-10.417,2.362-20.739,1.531-31.019-2.571
		c-10.232-4.121-19.023-11.722-26.373-22.837c-7.35-11.107-11.027-25.721-11.027-43.823c0-21.174,4.854-38.367,14.614-51.53
		c9.708-13.167,25.371-19.723,46.89-19.723c16.405,0,31.623,4.457,45.622,13.333c13.999,8.885,20.995,25.29,20.995,49.215v72.303
		c0,23.924-6.996,40.239-20.995,48.945c-14,8.695-29.217,13.082-45.622,13.082c-31.449,0-50.912-14.708-58.437-44.087h37.399
		c2.755,4.765,6.953,8.433,12.596,11.013c5.596,2.581,11.239,3.241,16.882,2.051c5.643-1.172,10.762-4.537,15.398-10.01
		C394.908,433.577,397.578,425.399,398.277,414.464L398.277,414.464z M339.837,355.499c0,23.584,6.825,36.656,20.469,39.199
		c13.688,2.581,23.754-0.577,30.268-9.443c3.063-3.771,5.294-9.679,6.65-17.714c1.356-8.016,1.446-15.975,0.265-23.84
		c-1.187-7.836-4.027-14.878-8.441-21.003c-4.462-6.163-10.937-9.23-19.51-9.23c-11.594,0-19.463,4.287-23.575,12.822
		C341.845,334.815,339.837,344.571,339.837,355.499L339.837,355.499z M453.995,286.311h18.457c4.812,0,8.881,1.701,12.293,5.113
		c3.45,3.413,5.161,7.524,5.161,12.289v118.937h-35.91V286.311L453.995,286.311z M622.038,422.649h-17.932
		c-5.161,0-9.319-1.626-12.6-4.858c-3.238-3.281-4.854-7.439-4.854-12.554l0,0v-69.722c0-8.224-2.453-14.179-7.434-17.94
		c-4.949-3.758-10.503-5.639-16.67-5.639c-6.12,0-11.59,1.881-16.405,5.639c-4.764,3.762-7.17,9.717-7.17,17.94v87.134h-35.867
		v-79.969c0-23.263,6.083-38.789,18.196-46.663c12.118-7.873,25.54-12.117,40.244-12.813c15.044,0,28.867,3.933,41.506,11.802
		c12.638,7.831,18.985,23.759,18.985,47.674V422.649L622.038,422.649z M734.183,380.614h25.636
		c-3.767,14.339-10.937,25.285-21.523,32.809c-10.587,7.865-23.925,11.798-39.979,11.798c-19.511,0-34.686-6.333-45.622-18.98
		c-10.938-12.289-16.405-29.871-16.405-52.793c0-21.863,5.293-38.973,15.88-51.266c10.938-12.639,26.155-18.977,45.618-18.977
		c20.517,0,36.396,6.163,47.678,18.452c10.938,12.642,16.406,30.267,16.406,52.801c0,1.399,0,2.572,0,3.583c0,1.05,0,1.711,0,2.052
		c0,1.71-0.176,2.93-0.524,3.592h-88.661c0.345,10.624,2.884,18.461,7.699,23.612c4.415,5.474,11.064,8.186,19.988,8.186
		c5.77,0,10.757-1.172,14.825-3.592c1.05-0.34,1.971-0.907,2.846-1.796c0.827-0.87,1.791-1.777,2.798-2.798
		c0.35-1.04,1.616-2.4,3.853-4.103C726.924,381.483,730.071,380.614,734.183,380.614L734.183,380.614z M672.685,340.639h52.269
		c-0.7-9.235-3.063-16.06-7.175-20.531c-4.461-4.759-10.762-7.164-18.98-7.164c-7.482,0-13.649,2.405-18.414,7.164
		C675.568,324.93,673.029,331.753,672.685,340.639L672.685,340.639z"/>
</g>
</svg>
